<?xml version="1.0" encoding="UTF-8"?>
<!DOCTYPE svg PUBLIC "-//W3C//DTD SVG 1.1//EN" "http://www.w3.org/Graphics/SVG/1.1/DTD/svg11.dtd">
<!-- Creator: CorelDRAW 2021 (64-Bit) -->
<svg xmlns="http://www.w3.org/2000/svg" xml:space="preserve" width="793.75mm" height="661.458mm" version="1.1" style="shape-rendering:geometricPrecision; text-rendering:geometricPrecision; image-rendering:optimizeQuality; fill-rule:evenodd; clip-rule:evenodd"
viewBox="0 0 79374.98 66145.82"
 xmlns:xlink="http://www.w3.org/1999/xlink"
 xmlns:xodm="http://www.corel.com/coreldraw/odm/2003">
 <defs>
  <style type="text/css">
   <![CDATA[
    .fil0 {fill:#FF9966}
    .fil1 {fill:#990000;fill-rule:nonzero}
    .fil4 {fill:#C9C9C9;fill-rule:nonzero}
    .fil6 {fill:#CC3300;fill-rule:nonzero}
    .fil2 {fill:#CC6633;fill-rule:nonzero}
    .fil3 {fill:#FF6666;fill-rule:nonzero}
    .fil5 {fill:white;fill-rule:nonzero}
   ]]>
  </style>
 </defs>
 <g id="Layer_x0020_1">
  <metadata id="CorelCorpID_0Corel-Layer"/>
  <rect class="fil0" x="-105.84" y="-132.3" width="79586.66" height="66410.41"/>
  <g id="_1841924771392">
   <polygon class="fil1" points="39021.26,61420.98 36252.73,59839.45 39021.21,58255.88 "/>
   <polygon class="fil1" points="39021.26,66086.25 36252.73,64504.3 39021.21,62921.07 "/>
   <polygon class="fil1" points="39913.49,66086.25 42682.02,64504.3 39913.49,62921.07 "/>
   <polygon class="fil1" points="31747.45,61420.98 34515.93,59839.45 31747.45,58255.88 "/>
   <polygon class="fil1" points="30833.34,61420.98 28064.81,59839.45 30833.34,58255.88 "/>
   <polygon class="fil1" points="23592.3,61420.98 26360.78,59839.45 23592.3,58255.88 "/>
   <polygon class="fil1" points="22678.19,61420.98 19909.66,59839.45 22678.19,58255.88 "/>
   <polygon class="fil1" points="15437.15,61420.98 18205.63,59839.45 15437.15,58255.88 "/>
   <polygon class="fil1" points="14523.04,61420.98 11754.51,59839.45 14523.04,58255.88 "/>
   <polygon class="fil1" points="7282,61420.98 10050.54,59839.45 7282,58255.88 "/>
   <polygon class="fil1" points="6367.89,61420.98 3599.4,59839.45 6367.89,58255.88 "/>
   <polygon class="fil1" points="-873.13,61420.98 1895.36,59839.45 -873.13,58255.88 "/>
   <polygon class="fil1" points="31747.45,66086.25 34515.93,64504.3 31747.45,62921.07 "/>
   <polygon class="fil1" points="30833.34,66086.25 28064.81,64504.3 30833.34,62921.07 "/>
   <polygon class="fil1" points="23592.3,66086.25 26360.78,64504.3 23592.3,62921.07 "/>
   <polygon class="fil1" points="22678.19,66086.25 19909.66,64504.3 22678.19,62921.07 "/>
   <polygon class="fil1" points="15437.15,66086.25 18205.63,64504.3 15437.15,62921.07 "/>
   <polygon class="fil1" points="14523.04,66086.25 11754.51,64504.3 14523.04,62921.07 "/>
   <polygon class="fil1" points="7282,66086.25 10050.54,64504.3 7282,62921.07 "/>
   <polygon class="fil1" points="6367.89,66086.25 3599.4,64504.3 6367.89,62921.07 "/>
   <polygon class="fil1" points="-873.13,66086.25 1895.36,64504.3 -873.13,62921.07 "/>
   <polygon class="fil1" points="47187.46,61420.98 44418.77,59839.45 47187.46,58255.88 "/>
   <polygon class="fil1" points="39913.49,61420.98 42682.02,59839.45 39913.49,58255.88 "/>
   <polygon class="fil1" points="55353.23,61420.98 52584.75,59839.45 55353.23,58255.88 "/>
   <polygon class="fil1" points="48079.69,61420.98 50847.95,59839.45 48079.69,58255.88 "/>
   <polygon class="fil1" points="47187.46,66086.25 44418.77,64504.3 47187.46,62921.07 "/>
   <polygon class="fil1" points="48079.69,66086.25 50847.95,64504.3 48079.69,62921.07 "/>
   <polygon class="fil1" points="63519.58,61420.98 60751.01,59839.45 63519.58,58255.88 "/>
   <polygon class="fil1" points="56245.4,61420.98 59014.52,59839.45 56245.4,58255.88 "/>
   <polygon class="fil2" points="38758.23,56449.54 36515.75,55168.47 38758.23,53885.94 "/>
   <polygon class="fil3" points="46924.27,56449.54 44682,55168.47 46924.27,53885.94 "/>
   <polygon class="fil3" points="40176.51,56449.54 42419,55168.47 40176.51,53885.94 "/>
   <polygon class="fil2" points="32010.48,53885.94 34252.91,55167.06 32010.48,56449.54 "/>
   <polygon class="fil3" points="30592.2,53885.94 28349.66,55167.06 30592.2,56449.54 "/>
   <polygon class="fil3" points="55090.2,56449.54 52847.98,55168.47 55090.2,53885.94 "/>
   <polygon class="fil2" points="48342.5,56449.54 50585.15,55168.47 48342.5,53885.94 "/>
   <polygon class="fil2" points="56508.43,56449.54 58750.97,55168.47 56508.43,53885.94 "/>
   <polygon class="fil3" points="32110.95,51535.32 33927.39,50497.64 32110.95,49458.77 "/>
   <polygon class="fil3" points="38657.65,51535.32 36841.27,50497.64 38657.65,49458.77 "/>
   <polygon class="fil4" points="40277.1,51535.32 42093.43,50497.64 40277.1,49458.77 "/>
   <polygon class="fil3" points="46823.9,51535.32 45007.36,50497.64 46823.9,49458.77 "/>
   <polygon class="fil4" points="48443.23,51535.32 50259.73,50497.64 48443.23,49458.77 "/>
   <polygon class="fil3" points="54989.73,51535.32 53173.4,50497.64 54989.73,49458.77 "/>
   <polygon class="fil3" points="56609.43,51535.32 58425.88,50497.64 56609.43,49458.77 "/>
   <polygon class="fil4" points="63156.09,51535.32 61339.65,50497.64 63156.09,49458.77 "/>
   <polygon class="fil3" points="64775.25,51535.32 66591.7,50497.64 64775.25,49458.77 "/>
   <polygon class="fil3" points="71322.45,51535.32 69506,50497.64 71322.45,49458.77 "/>
   <polygon class="fil4" points="72941.61,51535.32 74757.53,50497.64 72941.61,49458.77 "/>
   <polygon class="fil4" points="79488.27,51535.32 77671.82,50497.64 79488.27,49458.77 "/>
   <polygon class="fil3" points="32341.51,46494.62 33485.87,45840.89 32341.51,45186.42 "/>
   <polygon class="fil4" points="38427.15,46494.62 37282.77,45840.89 38427.15,45186.42 "/>
   <polygon class="fil3" points="40509.86,46494.62 41654.17,45840.89 40509.86,45186.42 "/>
   <polygon class="fil4" points="46595.39,46494.62 45451.14,45840.89 46595.39,45186.42 "/>
   <polygon class="fil3" points="48678.16,46494.62 49822.43,45840.89 48678.16,45186.42 "/>
   <polygon class="fil4" points="54764.05,46494.62 53619.38,45840.89 54764.05,45186.42 "/>
   <polygon class="fil4" points="56846.15,46494.62 57990.84,45840.89 56846.15,45186.42 "/>
   <polygon class="fil3" points="62931.99,46494.62 61787.84,45840.89 62931.99,45186.42 "/>
   <polygon class="fil4" points="65014.61,46494.62 66159.29,45840.89 65014.61,45186.42 "/>
   <polygon class="fil4" points="71100.45,46494.62 69955.77,45840.89 71100.45,45186.42 "/>
   <polygon class="fil5" points="73183.06,46494.62 74327.22,45840.89 73183.06,45186.42 "/>
   <polygon class="fil1" points="71685.42,61420.98 68917.35,59839.45 71685.42,58255.88 "/>
   <polygon class="fil1" points="64411.76,61420.98 67180.35,59839.45 64411.76,58255.88 "/>
   <polygon class="fil1" points="79851.24,61420.98 77083.18,59839.45 79851.24,58255.88 "/>
   <polygon class="fil1" points="72577.59,61420.98 75346.17,59839.45 72577.59,58255.88 "/>
   <polygon class="fil1" points="55353.23,66088.8 52584.75,64506.86 55353.23,62923.61 "/>
   <polygon class="fil1" points="63519.58,66088.8 60751.01,64506.86 63519.58,62923.61 "/>
   <polygon class="fil1" points="56245.4,66088.8 59014.52,64506.86 56245.4,62923.61 "/>
   <polygon class="fil1" points="71685.42,66088.8 68917.35,64506.86 71685.42,62923.61 "/>
   <polygon class="fil1" points="64411.76,66088.8 67180.35,64506.86 64411.76,62923.61 "/>
   <polygon class="fil1" points="79851.24,66088.8 77083.18,64506.86 79851.24,62923.61 "/>
   <polygon class="fil1" points="72577.59,66088.8 75346.17,64506.86 72577.59,62923.61 "/>
   <polygon class="fil2" points="63256.04,56452.45 61014.02,55171.27 63256.04,53888.8 "/>
   <polygon class="fil3" points="71422.39,56452.45 69179.85,55171.27 71422.39,53888.8 "/>
   <polygon class="fil2" points="64674.78,56452.45 66917.32,55171.27 64674.78,53888.8 "/>
   <polygon class="fil3" points="23844.44,53888.8 26086.87,55169.92 23844.44,56452.45 "/>
   <polygon class="fil3" points="15678.35,53888.8 17920.83,55169.92 15678.35,56452.45 "/>
   <polygon class="fil2" points="22426.11,53888.8 20183.57,55169.92 22426.11,56452.45 "/>
   <polygon class="fil2" points="14260.01,53888.8 12017.53,55169.92 14260.01,56452.45 "/>
   <polygon class="fil2" points="7512.26,53885.94 9754.74,55167.06 7512.26,56449.54 "/>
   <polygon class="fil2" points="6093.96,53885.94 3851.48,55167.06 6093.96,56449.54 "/>
   <polygon class="fil3" points="-653.73,53885.94 1588.73,55167.06 -653.73,56449.54 "/>
   <polygon class="fil2" points="79588.75,56452.45 77345.67,55171.27 79588.75,53888.8 "/>
   <polygon class="fil2" points="72840.61,56452.45 75083.14,55171.27 72840.61,53888.8 "/>
   <polygon class="fil1" points="42965.82,58936.32 40474.2,57512.83 42965.82,56087.83 "/>
   <polygon class="fil1" points="43104.23,63762.31 40335.75,62180.78 43104.23,60597.56 "/>
   <polygon class="fil3" points="42729.1,53997.95 40710.87,52844.97 42729.1,51690.7 "/>
   <polygon class="fil6" points="44134.91,58936.32 46626.69,57512.83 44134.91,56087.83 "/>
   <polygon class="fil1" points="43996.45,63762.31 46765.2,62180.78 43996.45,60597.56 "/>
   <polygon class="fil2" points="44371.58,53997.95 46390.03,52844.97 44371.58,51690.7 "/>
   <polygon class="fil1" points="51131.76,58936.32 48640.45,57512.83 51131.76,56087.83 "/>
   <polygon class="fil1" points="51270.27,63762.31 48501.94,62180.78 51270.27,60597.56 "/>
   <polygon class="fil2" points="50895.14,53997.95 48877.12,52844.97 50895.14,51690.7 "/>
   <polygon class="fil6" points="52300.9,58936.32 54792.47,57512.83 52300.9,56087.83 "/>
   <polygon class="fil1" points="52162.44,63762.31 54931.34,62180.78 52162.44,60597.56 "/>
   <polygon class="fil4" points="52537.57,53997.95 54556.27,52844.97 52537.57,51690.7 "/>
   <polygon class="fil1" points="59297.53,58936.32 56806.18,57512.83 59297.53,56087.83 "/>
   <polygon class="fil1" points="59436.41,63762.31 56667.83,62180.78 59436.41,60597.56 "/>
   <polygon class="fil2" points="59061.34,53997.95 57042.89,52844.97 59061.34,51690.7 "/>
   <polygon class="fil3" points="60466.93,58936.32 62958.82,57512.83 60466.93,56087.83 "/>
   <polygon class="fil1" points="18467.66,58936.32 15976.04,57512.83 18467.66,56087.83 "/>
   <polygon class="fil6" points="19636.74,58936.32 22128.41,57512.83 19636.74,56087.83 "/>
   <polygon class="fil1" points="26633.69,58936.32 24142.01,57512.83 26633.69,56087.83 "/>
   <polygon class="fil3" points="27802.89,58936.32 30294.45,57512.83 27802.89,56087.83 "/>
   <polygon class="fil1" points="60329.11,63762.31 63097.17,62180.78 60329.11,60597.56 "/>
   <polygon class="fil3" points="60704.18,53997.95 62722.09,52844.97 60704.18,51690.7 "/>
   <polygon class="fil1" points="67464.41,58936.32 64972.53,57512.83 67464.41,56087.83 "/>
   <polygon class="fil1" points="67602.76,63762.31 64834.17,62180.78 67602.76,60597.56 "/>
   <polygon class="fil2" points="67227.69,53997.95 65209.25,52844.97 67227.69,51690.7 "/>
   <polygon class="fil6" points="68633.29,58936.32 71124.64,57512.83 68633.29,56087.83 "/>
   <polygon class="fil1" points="68494.94,63762.31 71262.99,62180.78 68494.94,60597.56 "/>
   <polygon class="fil4" points="68870.01,53997.95 70887.93,52844.97 68870.01,51690.7 "/>
   <polygon class="fil1" points="75630.24,58936.32 73138.35,57512.83 75630.24,56087.83 "/>
   <polygon class="fil1" points="75768.58,63762.31 73000,62180.78 75768.58,60597.56 "/>
   <polygon class="fil2" points="75393.52,53997.95 73375.08,52844.97 75393.52,51690.7 "/>
   <polygon class="fil3" points="76799.12,58936.32 79291,57512.83 76799.12,56087.83 "/>
   <polygon class="fil1" points="11470.76,56087.83 13962.37,57511.31 11470.76,58936.32 "/>
   <polygon class="fil6" points="10301.56,56087.83 7809.95,57511.31 10301.56,58936.32 "/>
   <polygon class="fil1" points="3304.66,56087.83 5796.28,57511.31 3304.66,58936.32 "/>
   <polygon class="fil3" points="2135.52,56087.83 -356.12,57511.31 2135.52,58936.32 "/>
   <polygon class="fil1" points="76660.77,63762.31 79429.35,62180.78 76660.77,60597.56 "/>
   <polygon class="fil4" points="77035.84,53997.95 79053.75,52844.97 77035.84,51690.7 "/>
   <polygon class="fil3" points="34799.79,58936.32 32308.12,57512.83 34799.79,56087.83 "/>
   <polygon class="fil1" points="34938.19,63762.31 32169.66,62180.78 34938.19,60597.56 "/>
   <polygon class="fil4" points="34563.06,53997.95 32544.78,52844.97 34563.06,51690.7 "/>
   <polygon class="fil4" points="34213.46,43835.86 33641.27,43509.02 34213.46,43181.76 "/>
   <polygon class="fil4" points="36555.2,43835.86 37127.39,43509.02 36555.2,43181.76 "/>
   <polygon class="fil4" points="1571.1,43835.86 998.93,43509.02 1571.1,43181.76 "/>
   <polygon class="fil4" points="3912.82,43835.86 4484.99,43509.02 3912.82,43181.76 "/>
   <polygon class="fil4" points="44721.45,43835.86 45293.37,43509.02 44721.45,43181.76 "/>
   <polygon class="fil4" points="52887.44,43835.86 53459.36,43509.02 52887.44,43181.76 "/>
   <polygon class="fil4" points="58711.52,43835.86 58139.17,43509.02 58711.52,43181.76 "/>
   <polygon class="fil4" points="66877.87,43835.86 66305.53,43509.02 66877.87,43181.76 "/>
   <polygon class="fil4" points="77385.14,43835.86 77958,43509.02 77385.14,43181.76 "/>
   <polygon class="fil4" points="9689.51,43835.86 9117.33,43509.02 9689.51,43181.76 "/>
   <polygon class="fil4" points="17855.49,43835.86 17283.37,43509.02 17855.49,43181.76 "/>
   <polygon class="fil4" points="28363.34,43835.86 28935.52,43509.02 28363.34,43181.76 "/>
   <polygon class="fil1" points="35968.93,58936.32 38460.54,57512.83 35968.93,56087.83 "/>
   <polygon class="fil1" points="35830.47,63762.31 38598.95,62180.78 35830.47,60597.56 "/>
   <polygon class="fil1" points="26772.15,63762.31 24003.67,62180.78 26772.15,60597.56 "/>
   <polygon class="fil1" points="27664.38,63762.31 30432.91,62180.78 27664.38,60597.56 "/>
   <polygon class="fil1" points="18606.06,63762.31 15837.58,62180.78 18606.06,60597.56 "/>
   <polygon class="fil1" points="19498.34,63762.31 22266.82,62180.78 19498.34,60597.56 "/>
   <polygon class="fil1" points="10440.02,63762.31 7671.49,62180.78 10440.02,60597.56 "/>
   <polygon class="fil1" points="11332.3,63762.31 14100.78,62180.78 11332.3,60597.56 "/>
   <polygon class="fil1" points="2273.93,63762.31 -494.54,62180.78 2273.93,60597.56 "/>
   <polygon class="fil1" points="3166.22,63762.31 5934.73,62180.78 3166.22,60597.56 "/>
   <polygon class="fil2" points="36205.6,53997.95 38223.83,52844.97 36205.6,51690.7 "/>
   <polygon class="fil4" points="1898.79,53997.95 -119.44,52844.97 1898.79,51690.7 "/>
   <polygon class="fil2" points="3541.35,53997.95 5559.63,52844.97 3541.35,51690.7 "/>
   <polygon class="fil3" points="19809.18,51690.7 21827.41,52843.67 19809.18,53997.95 "/>
   <polygon class="fil2" points="18305.95,51690.7 16287.72,52843.67 18305.95,53997.95 "/>
   <polygon class="fil2" points="11643.14,51690.7 13661.32,52843.67 11643.14,53997.95 "/>
   <polygon class="fil4" points="10161.38,51690.7 8143.03,52843.67 10161.38,53997.95 "/>
   <polygon class="fil4" points="28039.56,51690.7 30057.79,52843.67 28039.56,53997.95 "/>
   <polygon class="fil2" points="26396.97,51690.7 24378.79,52843.67 26396.97,53997.95 "/>
   <polygon class="fil3" points="36220.22,49110.96 37854.96,48177.07 36220.22,47242.1 "/>
   <polygon class="fil5" points="34548.44,49110.96 32913.7,48177.07 34548.44,47242.1 "/>
   <polygon class="fil3" points="44386.15,49110.96 46020.89,48177.07 44386.15,47242.1 "/>
   <polygon class="fil5" points="42714.58,49110.96 41079.79,48177.07 42714.58,47242.1 "/>
   <polygon class="fil5" points="52552.55,49110.96 54187.52,48177.07 52552.55,47242.1 "/>
   <polygon class="fil3" points="50880.51,49110.96 49245.83,48177.07 50880.51,47242.1 "/>
   <polygon class="fil3" points="60718.39,49110.96 62353.34,48177.07 60718.39,47242.1 "/>
   <polygon class="fil5" points="59047.13,49110.96 57412.18,48177.07 59047.13,47242.1 "/>
   <polygon class="fil3" points="5993.42,51535.32 4176.96,50497.64 5993.42,49458.77 "/>
   <polygon class="fil4" points="-553.2,51535.32 1263.2,50497.64 -553.2,49458.77 "/>
   <polygon class="fil4" points="7612.78,51535.32 9429.17,50497.64 7612.78,49458.77 "/>
   <polygon class="fil3" points="14159.48,51535.32 12343.1,50497.64 14159.48,49458.77 "/>
   <polygon class="fil3" points="15778.88,51535.32 17595.26,50497.64 15778.88,49458.77 "/>
   <polygon class="fil4" points="5765.08,46494.62 4620.72,45840.89 5765.08,45186.42 "/>
   <polygon class="fil3" points="7847.77,46494.62 8992.08,45840.89 7847.77,45186.42 "/>
   <polygon class="fil4" points="13933.39,46494.62 12789.08,45840.89 13933.39,45186.42 "/>
   <polygon class="fil4" points="16016.07,46494.62 17160.43,45840.89 16016.07,45186.42 "/>
   <polygon class="fil3" points="3555.91,49110.96 5190.68,48177.07 3555.91,47242.1 "/>
   <polygon class="fil5" points="11722.05,49110.96 13356.79,48177.07 11722.05,47242.1 "/>
   <polygon class="fil3" points="10050.27,49110.96 8415.53,48177.07 10050.27,47242.1 "/>
   <polygon class="fil3" points="1898.79,49110.96 264.02,48177.07 1898.79,47242.1 "/>
   <polygon class="fil5" points="18216.36,49110.96 16581.62,48177.07 18216.36,47242.1 "/>
   <polygon class="fil3" points="68884.74,49110.96 70519.17,48177.07 68884.74,47242.1 "/>
   <polygon class="fil5" points="67212.96,49110.96 65578.01,48177.07 67212.96,47242.1 "/>
   <polygon class="fil4" points="22350.3,51535.32 20533.92,50497.64 22350.3,49458.77 "/>
   <polygon class="fil3" points="23969.73,51535.32 25786.13,50497.64 23969.73,49458.77 "/>
   <polygon class="fil3" points="30516.39,51535.32 28700.01,50497.64 30516.39,49458.77 "/>
   <polygon class="fil3" points="22126.42,46494.62 20982.06,45840.89 22126.42,45186.42 "/>
   <polygon class="fil4" points="24209.09,46494.62 25353.4,45840.89 24209.09,45186.42 "/>
   <polygon class="fil4" points="30294.72,46494.62 29150.41,45840.89 30294.72,45186.42 "/>
   <polygon class="fil3" points="19912.87,49110.96 21547.66,48177.07 19912.87,47242.1 "/>
   <polygon class="fil3" points="28078.91,49110.96 29713.7,48177.07 28078.91,47242.1 "/>
   <polygon class="fil5" points="26407.18,49110.96 24772.44,48177.07 26407.18,47242.1 "/>
   <polygon class="fil3" points="77051.09,49110.96 78685.52,48177.07 77051.09,47242.1 "/>
   <polygon class="fil5" points="75378.79,49110.96 73744.36,48177.07 75378.79,47242.1 "/>
  </g>
 </g>
</svg>
